<?xml version="1.0" encoding="utf-8"?>
<!-- Generator: Adobe Illustrator 24.1.2, SVG Export Plug-In . SVG Version: 6.00 Build 0)  -->
<svg version="1.1" id="Layer_1" xmlns="http://www.w3.org/2000/svg" xmlns:xlink="http://www.w3.org/1999/xlink" x="0px" y="0px"
	 viewBox="0 0 512 512" style="enable-background:new 0 0 512 512;" xml:space="preserve">
<style type="text/css">
	.st0{fill:#653393;}
</style>
<g id="XMLID_10328_">
	<path id="XMLID_10335_" class="st0" d="M129.8,18H17.7C8,18,0,26,0,35.7v440.3c0,9.8,8,17.7,17.7,17.7h112.1
		c9.8,0,17.7-8,17.7-17.7v-43.4c0-9.8-8-17.7-17.7-17.7H78.9V96.8h50.9c9.8,0,17.7-8,17.7-17.7V35.7C147.6,26,139.6,18,129.8,18z
		 M126.1,39.5v35.9H68.2c-5.9,0-10.7,4.8-10.7,10.7v339.6c0,5.9,4.8,10.7,10.7,10.7h57.9v36H21.4V39.5H126.1z"/>
	<path id="XMLID_10332_" class="st0" d="M437.2,187.9v136c0,10.4,8.5,18.9,18.9,18.9h37c10.4,0,18.9-8.5,18.9-18.9v-136
		c0-10.4-8.5-18.9-18.9-18.9h-37C445.7,169,437.2,177.5,437.2,187.9z M490.6,190.5v130.9h-31.9V190.5H490.6z"/>
	<path id="XMLID_10329_" class="st0" d="M335.4,167.9V98.4c0-11.5-5.5-21.4-14-25.3c-6.8-3.1-14.3-2-20.2,3l-92.3,78.7c0,0,0,0,0,0
		l-92.3,78.8c-5.9,5-9.3,13.1-9.3,22.3v0c0,9.1,3.4,17.2,9.3,22.3l184.6,157.5c5.9,5,13.5,6.2,20.2,3c8.5-3.9,14-13.9,14-25.3v-71.8
		h65.5c9.8,0,17.8-8,17.8-17.7V185.6c0-9.8-8-17.7-17.8-17.7H335.4z M314,178.6c0,5.9,4.8,10.7,10.7,10.7h72.5v130.8h-72.5
		c-5.9,0-10.7,4.8-10.7,10.7v82.6c0,1.9-0.4,3.3-0.8,4.4L130.5,261.9c-0.7-0.6-1.8-2.9-1.8-6l0,0c0-3.1,1-5.3,1.7-6l92.3-78.8h0
		l90.4-77.1c0.4,1,0.8,2.5,0.8,4.4V178.6z"/>
</g>
</svg>
