<?xml version="1.0" encoding="utf-8"?>
<!-- Generator: Adobe Illustrator 24.1.2, SVG Export Plug-In . SVG Version: 6.00 Build 0)  -->
<svg version="1.1" id="Layer_1" xmlns="http://www.w3.org/2000/svg" xmlns:xlink="http://www.w3.org/1999/xlink" x="0px" y="0px"
	 viewBox="0 0 512 512" style="enable-background:new 0 0 512 512;" xml:space="preserve">
<style type="text/css">
	.st0{fill:#653393;}
</style>
<g id="XMLID_10257_">
	<path id="XMLID_10261_" class="st0" d="M310.1,274.1c1.9,0.9,3.9,1.3,5.9,1.3c3.2,0,6.4-1.1,9-3.3l146.7-123.8
		c3.1-2.6,4.9-6.5,4.9-10.6c0-4.1-1.8-8-4.9-10.6L324.9,3.3c-4.1-3.5-9.9-4.3-14.8-2c-4.9,2.3-8,7.2-8,12.6v38.7H50.7
		c-7.7,0-13.9,6.2-13.9,13.9v142.4c0,7.7,6.2,13.9,13.9,13.9H302v38.7C302,266.9,305.2,271.8,310.1,274.1z M64.6,195V80.4h251.3
		c7.7,0,13.9-6.2,13.9-13.9V43.8L441,137.7l-111.2,93.9v-22.7c0-7.7-6.2-13.9-13.9-13.9H64.6z"/>
	<path id="XMLID_10258_" class="st0" d="M41.8,384.9l146.7,123.8c2.5,2.2,5.7,3.3,9,3.3c2,0,4-0.4,5.9-1.3c4.9-2.3,8-7.2,8-12.6
		v-38.7h251.3c7.7,0,13.9-6.2,13.9-13.9V303.1c0-7.7-6.2-13.9-13.9-13.9H211.3v-38.7c0-5.4-3.1-10.3-8-12.6
		c-4.9-2.3-10.7-1.5-14.8,2L41.8,363.7c-3.1,2.6-4.9,6.5-4.9,10.6C36.8,378.4,38.6,382.3,41.8,384.9z M183.5,280.4v22.7
		c0,7.7,6.2,13.9,13.9,13.9h251.3v114.6H197.4c-7.7,0-13.9,6.2-13.9,13.9v22.7L72.3,374.3L183.5,280.4z"/>
</g>
</svg>
